<svg width="135" height="42" viewBox="0 0 135 42" fill="none" xmlns="http://www.w3.org/2000/svg">
<path fill-rule="evenodd" clip-rule="evenodd" d="M17.8028 0.191767C8.90161 2.08219 2.40155 8.54061 0.77541 17.1095C0.451263 18.8166 0.402589 22.8195 0.686353 24.4115C2.10409 32.3635 7.85814 38.885 15.4649 41.1611C19.4171 42.3434 24.3189 42.2713 28.169 40.9744C34.6266 38.7988 39.8006 33.423 41.6815 26.9348C42.3271 24.7079 42.4986 23.452 42.5 20.9368C42.5063 10.9769 35.7962 2.654 25.9629 0.424242C24.3408 0.0562497 23.5791 -0.0129532 21.3183 0.00182417C19.831 0.0115556 18.249 0.096976 17.8028 0.191767ZM30.8643 13.56C29.1797 14.3241 28.6437 16.6054 29.8202 18.0032C31.1212 19.5487 33.2195 19.4403 34.4623 17.7637C34.7441 17.3836 34.8395 16.988 34.8395 16.2C34.8395 15.069 34.5436 14.4838 33.6249 13.7981C33.0282 13.3528 31.594 13.2292 30.8643 13.56ZM11.0423 17.1753C9.5472 17.8395 8.85366 19.8453 9.66619 21.1558C9.85043 21.4531 11.9442 23.6551 14.3191 26.0492C18.9604 30.7283 19.3241 30.9914 20.7708 30.7201C21.6921 30.5473 22.7615 29.534 22.9957 28.6118C23.0992 28.2046 23.1561 27.7794 23.1224 27.6672C23.0887 27.5551 23.0081 27.2199 22.9434 26.9225C22.7983 26.2558 14.2365 17.5566 13.3466 17.1717C12.6252 16.8597 11.7493 16.861 11.0423 17.1753ZM25.0952 19.3369C23.2764 20.1288 22.8468 22.5457 24.2717 23.9703C26.2972 25.995 29.6163 24.1815 29.0834 21.3412C28.9464 20.6115 28.252 19.7227 27.5256 19.3472C26.8973 19.0224 25.8279 19.0179 25.0952 19.3369Z" fill="#15B86C"/>
<path d="M64.576 32V13.24H58.808V11.14H72.528V13.24H66.816V32H64.576ZM78.1562 32.336C77.2042 32.336 76.3548 32.1587 75.6082 31.804C74.8615 31.4307 74.2735 30.9267 73.8442 30.292C73.4148 29.6573 73.2002 28.9293 73.2002 28.108C73.2002 27.324 73.3682 26.6147 73.7042 25.98C74.0402 25.3267 74.5628 24.776 75.2722 24.328C75.9815 23.88 76.8868 23.5627 77.9882 23.376L83.8682 22.396V24.3L78.4922 25.196C77.4095 25.3827 76.6255 25.728 76.1402 26.232C75.6735 26.736 75.4402 27.3333 75.4402 28.024C75.4402 28.696 75.7015 29.2653 76.2242 29.732C76.7655 30.1987 77.4562 30.432 78.2962 30.432C79.3228 30.432 80.2188 30.2173 80.9842 29.788C81.7495 29.34 82.3468 28.7427 82.7762 27.996C83.2055 27.2493 83.4202 26.4187 83.4202 25.504V21.696C83.4202 20.8 83.0935 20.072 82.4402 19.512C81.7868 18.952 80.9375 18.672 79.8922 18.672C78.9775 18.672 78.1748 18.9053 77.4842 19.372C76.7935 19.82 76.2802 20.408 75.9442 21.136L74.0402 20.1C74.3202 19.4653 74.7588 18.8867 75.3562 18.364C75.9722 17.8413 76.6722 17.4307 77.4562 17.132C78.2402 16.8147 79.0522 16.656 79.8922 16.656C80.9935 16.656 81.9642 16.8707 82.8042 17.3C83.6628 17.7293 84.3255 18.3267 84.7922 19.092C85.2775 19.8387 85.5202 20.7067 85.5202 21.696V32H83.4202V29.004L83.7282 29.312C83.4668 29.872 83.0562 30.3853 82.4962 30.852C81.9548 31.3 81.3108 31.664 80.5642 31.944C79.8362 32.2053 79.0335 32.336 78.1562 32.336ZM95.5476 32.336C94.1103 32.336 92.8503 31.972 91.7676 31.244C90.6849 30.516 89.9009 29.5267 89.4156 28.276L91.1796 27.436C91.6089 28.3507 92.2063 29.0787 92.9716 29.62C93.7556 30.1613 94.6143 30.432 95.5476 30.432C96.4436 30.432 97.1996 30.2173 97.8156 29.788C98.4316 29.34 98.7396 28.7613 98.7396 28.052C98.7396 27.5293 98.5903 27.1187 98.2916 26.82C97.9929 26.5027 97.6476 26.26 97.2556 26.092C96.8636 25.924 96.5183 25.8027 96.2196 25.728L94.0636 25.112C92.6823 24.72 91.6836 24.1693 91.0676 23.46C90.4516 22.7507 90.1436 21.9293 90.1436 20.996C90.1436 20.1187 90.3676 19.3533 90.8156 18.7C91.2636 18.0467 91.8703 17.5427 92.6356 17.188C93.4009 16.8333 94.2503 16.656 95.1836 16.656C96.4529 16.656 97.6009 16.992 98.6276 17.664C99.6729 18.3173 100.41 19.232 100.84 20.408L99.0476 21.248C98.6743 20.408 98.1329 19.7547 97.4236 19.288C96.7329 18.8027 95.9583 18.56 95.0996 18.56C94.2596 18.56 93.5876 18.7747 93.0836 19.204C92.5796 19.6333 92.3276 20.1747 92.3276 20.828C92.3276 21.332 92.4583 21.7333 92.7196 22.032C92.9809 22.3307 93.2796 22.5547 93.6156 22.704C93.9703 22.8533 94.2783 22.9653 94.5396 23.04L97.0316 23.768C98.2449 24.1227 99.1876 24.6733 99.8596 25.42C100.55 26.1667 100.896 27.044 100.896 28.052C100.896 28.8733 100.662 29.6107 100.196 30.264C99.7476 30.9173 99.1223 31.4307 98.3196 31.804C97.5169 32.1587 96.5929 32.336 95.5476 32.336ZM105.086 32V10.804H107.186V25.644L106.29 25.504L114.718 16.992H117.434L111.554 23.012L117.966 32H115.446L109.426 23.684L110.77 23.796L106.486 28.22L107.186 26.484V32H105.086ZM121.234 38.16C120.935 38.16 120.627 38.132 120.31 38.076C120.011 38.0387 119.712 37.964 119.414 37.852V35.892C119.6 35.9107 119.834 35.9387 120.114 35.976C120.412 36.032 120.711 36.06 121.01 36.06C121.924 36.06 122.624 35.864 123.11 35.472C123.595 35.0987 124.071 34.3707 124.538 33.288L125.49 31.048L125.434 32.896L119.078 16.992H121.346L126.554 30.124H125.966L131.146 16.992H133.47L126.61 33.904C126.311 34.632 125.928 35.3227 125.462 35.976C125.014 36.6293 124.444 37.152 123.754 37.544C123.063 37.9547 122.223 38.16 121.234 38.16Z" fill="white"/>
</svg>
