<svg width="375" height="809" viewBox="0 0 375 809" fill="none" xmlns="http://www.w3.org/2000/svg">
<g clip-path="url(#clip0_87_3137)">
<rect width="375" height="809" fill="#181818"/>
<path fill-rule="evenodd" clip-rule="evenodd" d="M179.842 361.397C161.403 365.313 147.939 378.691 144.57 396.441C143.899 399.977 143.798 408.269 144.386 411.567C147.323 428.039 159.242 441.547 174.999 446.262C183.185 448.711 193.339 448.562 201.314 445.875C214.691 441.369 225.408 430.233 229.305 416.794C230.642 412.181 230.997 409.579 231 404.369C231.013 383.738 217.114 366.498 196.745 361.879C193.384 361.117 191.807 360.973 187.124 361.004C184.043 361.024 180.766 361.201 179.842 361.397ZM206.897 389.089C203.408 390.671 202.298 395.397 204.735 398.292C207.43 401.494 211.776 401.269 214.351 397.796C214.934 397.009 215.132 396.189 215.132 394.557C215.132 392.214 214.519 391.002 212.616 389.582C211.38 388.659 208.409 388.403 206.897 389.089ZM165.838 396.577C162.741 397.953 161.304 402.108 162.987 404.823C163.369 405.439 167.706 410 172.625 414.959C182.239 424.651 182.993 425.196 185.99 424.635C187.898 424.277 190.113 422.178 190.598 420.267C190.813 419.424 190.931 418.543 190.861 418.311C190.791 418.078 190.624 417.384 190.49 416.768C190.189 415.387 172.454 397.367 170.611 396.57C169.116 395.924 167.302 395.926 165.838 396.577ZM194.947 401.055C191.18 402.695 190.29 407.702 193.241 410.653C197.437 414.847 204.312 411.09 203.209 405.207C202.925 403.695 201.486 401.854 199.982 401.076C198.68 400.404 196.465 400.394 194.947 401.055Z" fill="#15B86C"/>
<rect x="-347" y="-402" width="722" height="722" fill="url(#paint0_radial_87_3137)" fill-opacity="0.5"/>
<rect y="468" width="722" height="722" fill="url(#paint1_radial_87_3137)" fill-opacity="0.5"/>
</g>
<defs>
<radialGradient id="paint0_radial_87_3137" cx="0" cy="0" r="1" gradientUnits="userSpaceOnUse" gradientTransform="translate(14 -41) rotate(90) scale(361)">
<stop stop-color="#15B86C" stop-opacity="0.5"/>
<stop offset="1" stop-color="#15B86C" stop-opacity="0"/>
</radialGradient>
<radialGradient id="paint1_radial_87_3137" cx="0" cy="0" r="1" gradientUnits="userSpaceOnUse" gradientTransform="translate(361 829) rotate(90) scale(361)">
<stop stop-color="#15B86C" stop-opacity="0.5"/>
<stop offset="1" stop-color="#15B86C" stop-opacity="0"/>
</radialGradient>
<clipPath id="clip0_87_3137">
<rect width="375" height="809" fill="white"/>
</clipPath>
</defs>
</svg>
